<svg xmlns="http://www.w3.org/2000/svg" version="1.1" xmlns:xlink="http://www.w3.org/1999/xlink" xmlns:svgjs="http://svgjs.com/svgjs" width="512" height="512" x="0" y="0" viewBox="0 0 511 511.999" style="enable-background:new 0 0 512 512" xml:space="preserve" class=""><g><path d="M207.363 126.734c.7-.789 3.969-3.367 16.809-3.367l42.098-.015c13.695 0 24.832-11.141 24.832-24.836V24.937c0-13.671-11.122-24.812-24.793-24.835L203.777 0c-38.593 0-71.402 12.73-94.879 36.82-23.37 23.98-35.726 57.457-35.726 96.805v39.684H25.336C11.64 173.309.5 184.449.5 198.145v79.242c0 13.695 11.14 24.836 24.836 24.836h47.836v184.941c0 13.695 11.14 24.836 24.836 24.836H180c13.695 0 24.836-11.14 24.836-24.836V302.227h58.473c13.695 0 24.832-11.145 24.832-24.832l.03-79.247c0-8.996-4.894-17.32-12.776-21.722-3.653-2.04-7.903-3.117-12.286-3.117h-58.273v-31.352c0-10.219 1.375-13.918 2.527-15.223zm0 0" fill="#aa8453" data-original="#000000" class=""></path></g></svg>