<svg xmlns="http://www.w3.org/2000/svg" version="1.1" xmlns:xlink="http://www.w3.org/1999/xlink" xmlns:svgjs="http://svgjs.com/svgjs" width="512" height="512" x="0" y="0" viewBox="0 0 351.6 351.6" style="enable-background:new 0 0 512 512" xml:space="preserve" class=""><g><path d="M331.8 16.4C321.4 6 307.4 0 291.8 0h-232c-15.6 0-29.6 6.4-40 16.4C9.4 26.8 3.4 40.8 3.4 56.4v238.8c0 15.6 6.4 29.6 16.4 40 10.4 10.4 24.4 16.4 40 16.4h232c15.6 0 29.6-6.4 40-16.4 10.4-10.4 16.4-24.4 16.4-40V56.4c0-15.6-6.4-29.6-16.4-40zM327 295.2c-.4 10-4 18.4-10.4 24.8-6.4 6.4-15.2 10.4-24.8 10.4h-232c-9.6 0-18.4-4-24.8-10.4-6.4-6.4-10.4-15.2-10.4-24.8V123.6H81c-8.8 15.6-14 33.2-14 52.4 0 30 12 57.2 32 76.8 19.6 19.6 46.8 32 76.8 32s57.2-12 76.8-32c19.6-19.6 32-46.8 32-76.8 0-19.2-5.2-36.8-14-52.4H327v171.6zM88.6 176c0-24 9.6-46 25.6-61.6 15.6-15.6 37.6-25.6 61.6-25.6s46 9.6 61.6 25.6C253 130 263 152 263 176s-9.6 46-25.6 61.6c-15.6 15.6-37.6 25.6-61.6 25.6s-46-9.6-61.6-25.6C98.6 222 88.6 200 88.6 176zM327 102.4h-72c-.8-.8-1.6-2-2.4-3.2-19.6-19.6-46.8-32-76.8-32s-57.2 12-76.8 32c-.8.8-1.6 2-2.4 3.2H25v-46c0-9.6 3.6-18 10-24.4 6.4-6.4 15.2-10.4 24.8-10.4h232c9.6 0 18.4 4 24.8 10.4C323 38.4 327 47.2 327 56.8v45.6z" fill="#aa8453" data-original="#000000" class=""></path><circle cx="284.6" cy="64.8" r="20.8" fill="#aa8453" data-original="#000000" class=""></circle><path d="M175.8 227.6c14.4 0 27.2-5.6 36.8-15.2 9.2-9.2 15.2-22.4 15.2-36.8 0-14.4-5.6-27.2-15.2-36.8-9.2-9.2-22.4-15.2-36.8-15.2s-27.2 5.6-36.8 15.2c-9.2 9.2-15.2 22.4-15.2 36.8s5.6 27.2 15.2 36.8c9.6 9.6 22.4 15.2 36.8 15.2zm-21.6-73.2c5.6-5.6 13.2-8.8 21.6-8.8s16 3.2 21.6 8.8c5.6 5.6 8.8 13.2 8.8 21.6 0 8.4-3.2 16-8.8 21.6-5.6 5.6-13.2 8.8-21.6 8.8-8.4 0-16-3.2-21.6-8.8-5.6-5.6-8.8-13.2-8.8-21.6 0-8.4 3.6-16 8.8-21.6z" fill="#aa8453" data-original="#000000" class=""></path></g></svg>