<svg xmlns="http://www.w3.org/2000/svg" version="1.1" xmlns:xlink="http://www.w3.org/1999/xlink" xmlns:svgjs="http://svgjs.com/svgjs" width="512" height="512" x="0" y="0" viewBox="0 0 511.999 511.999" style="enable-background:new 0 0 512 512" xml:space="preserve" class=""><g><path d="M509.738 109.538a15.263 15.263 0 0 0-14.332-7.215l-25.53 2.224 24.403-49.193a15.268 15.268 0 0 0-20.393-20.498l-64.587 31.631c-39.903-21.066-89.756-14.813-124.06 16.436-28.63 26.08-43.679 66.187-40.873 106.183-74.829-7.5-138.169-50.331-175.623-119.537a15.269 15.269 0 0 0-25.7-1.817c-23.23 31.382-24.86 74.41-6.649 109.809-5.02-1.268-10.362-2.984-16.286-4.963A15.266 15.266 0 0 0 .205 189.564c7.206 43.688 32.682 77.264 72.926 97.138a128.229 128.229 0 0 1-16.024 4.44 15.267 15.267 0 0 0-8.034 25.378c28.981 30.978 70.845 46.225 100.581 53.539-33.81 26.477-70.307 30.908-123.341 29.087-6.139-.186-11.795 3.272-14.376 8.837a15.27 15.27 0 0 0 2.544 16.681c22.108 24.369 102.654 51.847 187.326 53.907 3.349.081 6.765.125 10.253.125 59.451-.001 138.022-12.745 194.419-69.142 42.687-42.686 69.387-91.827 79.356-146.053 8.052-43.797 2.963-78.869.518-95.725-.18-1.239-.372-2.554-.528-3.704l23.881-38.49a15.267 15.267 0 0 0 .032-16.044zm-53.606 62.622c4.531 31.224 18.316 126.24-71.245 215.801-52.06 52.059-127.888 61.407-182.338 60.084-46.461-1.13-88.019-10.016-118.139-20.15 12.229-1.5 23.127-3.814 33.414-7.011 28.359-8.815 52.317-24.676 75.395-49.915a15.268 15.268 0 0 0-9.327-25.447c-14.559-1.866-58.305-9.23-92.753-32.992 9.927-4.06 19.501-9.141 28.643-15.205a15.27 15.27 0 0 0-4.569-27.494c-28.195-7.392-62.223-23.932-77.914-60.855 10.02 1.756 20.915 2.181 32.535-.424a15.268 15.268 0 0 0 7.645-25.504c-19.524-20.222-26.825-49.364-20.561-74.301 20.514 29.981 46.503 55.213 76.279 73.868 38.091 23.865 82.549 37.054 128.57 38.137a15.32 15.32 0 0 0 12.157-5.573 15.27 15.27 0 0 0 3.107-13.007c-7.918-35.595 3.375-73.541 28.771-96.674 26.34-23.995 65.269-27.635 94.666-8.846a15.27 15.27 0 0 0 14.938.846l31.541-15.448-16.509 33.281a15.265 15.265 0 0 0 1.065 15.388 15.252 15.252 0 0 0 13.938 6.607l22.242-1.937-10.246 16.515c-3.439 5.543-2.726 10.461-1.305 20.256z" fill="#ffffff" data-original="#000000"></path></g></svg>