<svg xmlns="http://www.w3.org/2000/svg" version="1.1" xmlns:xlink="http://www.w3.org/1999/xlink" xmlns:svgjs="http://svgjs.com/svgjs" width="512" height="512" x="0" y="0" viewBox="0 0 64 64" style="enable-background:new 0 0 512 512" xml:space="preserve"><g><path d="M21.634 47.186c-1.893-2.126-3.422-4.206-4.899-6.22a35.467 35.467 0 0 1-3.494-5.845c-.61-1.248-.88-2.51.441-3.323 3.787-2.327 4.563-.105 6.62 2.473 1.22 1.528 3.02 4.047 4.147 5.639 1.077 1.52 2.39-1.223 2.913-1.998 1.863-2.75 6.703-9.486 8.704-11.975 1.899-2.364 8.028-8.985 9.17-10.038.973-.897 3.027-2.863 4.408-1.778 1.45 1.14 2.16 3.307 1.14 4.716-1.777 2.453-4.567 4.786-6.498 7.122-3.908 4.728-7.608 9.824-11.16 14.899-1.207 1.724-2.901 4.612-3.953 6.482-1.968 3.499-3.696 4.164-7.54-.154z" fill="#aa8453" data-original="#000000"></path></g></svg>